<?xml version="1.0" standalone="no"?>
<!DOCTYPE svg PUBLIC "-//W3C//DTD SVG 20010904//EN"
 "http://www.w3.org/TR/2001/REC-SVG-20010904/DTD/svg10.dtd">
<svg version="1.0" xmlns="http://www.w3.org/2000/svg"
 width="512.000000pt" height="512.000000pt" viewBox="0 0 512.000000 512.000000"
 preserveAspectRatio="xMidYMid meet">
<metadata>
Created by potrace 1.14, written by Peter Selinger 2001-2017
</metadata>
<g transform="translate(0.000000,512.000000) scale(0.100000,-0.100000)"
fill="#000000" stroke="none">
<path d="M1730 3500 l0 -110 -75 0 -75 0 0 -1050 0 -1050 110 0 110 0 0 -110
0 -110 185 0 185 0 0 -535 0 -535 25 0 25 0 0 535 0 535 330 0 330 0 0 125 0
125 -25 0 c-25 0 -25 0 -25 -95 l0 -95 -467 -1 c-258 -1 -475 -2 -483 -3 -12
-1 -16 19 -20 109 l-5 110 -107 0 -108 -1 0 788 0 787 58 3 57 3 3 73 3 72
579 0 579 0 3 -72 3 -73 73 -3 72 -3 0 -399 0 -400 75 0 75 0 0 220 0 220 95
0 95 0 0 -240 0 -239 -72 -3 -73 -3 -3 -1037 -2 -1038 30 0 30 0 0 1010 0
1009 73 3 72 3 2 683 3 682 -75 0 -75 0 0 75 0 75 -75 0 -75 0 0 35 0 35 -720
0 -720 0 0 -110z"/>
<path d="M1757 2703 c-2 -5 -3 -15 -2 -23 1 -8 3 -23 3 -32 2 -16 16 -18 147
-18 l145 0 0 40 0 40 -144 0 c-80 0 -147 -3 -149 -7z"/>
<path d="M2410 2670 l0 -40 150 0 150 0 0 40 0 40 -150 0 -150 0 0 -40z"/>
<path d="M1830 2415 l0 -75 74 0 74 0 -1 73 -2 72 -72 3 -73 3 0 -76z"/>
<path d="M2110 2225 l0 -265 123 0 122 0 -3 45 c-4 50 -22 62 -22 15 l0 -30
-100 0 -101 0 3 250 c2 195 0 250 -9 250 -10 0 -13 -60 -13 -265z"/>
<path d="M2488 2415 l-3 -75 75 0 76 0 -2 28 c-1 15 -3 48 -3 75 l-1 47 -69 0
-69 0 -4 -75z"/>
<path d="M2054 1688 c-3 -5 -3 -12 0 -15 3 -4 6 0 7 8 0 8 4 6 9 -6 7 -17 9
-17 9 -3 1 16 18 18 159 21 l157 3 -167 1 c-100 1 -170 -3 -174 -9z"/>
<path d="M2408 1663 c6 -2 18 -2 25 0 6 3 1 5 -13 5 -14 0 -19 -2 -12 -5z"/>
</g>
</svg>
